<svg width="32" height="35" viewBox="0 0 32 35" fill="none" xmlns="http://www.w3.org/2000/svg">
    <path fill-rule="evenodd" clip-rule="evenodd" d="M0.591797 2.67739C5.19999 0.956822 10.3231 0 15.725 0C21.127 0 26.2501 0.956822 30.8583 2.67739L28.7558 3.66853C24.6239 2.29122 20.2088 1.59184 15.725 1.59184C11.2413 1.59184 6.82616 2.29122 2.69423 3.66424L0.591797 2.67739Z" fill="#F0F0F0"/>
    <path fill-rule="evenodd" clip-rule="evenodd" d="M14.9959 34.5696L4.56958 28.0435C0.424777 25.4519 0 23.7399 0 21.1698V3.77539L1.95226 4.6936V21.1698C1.95226 21.8134 1.97371 22.4913 2.15392 23.1221C2.60444 24.6839 4.26494 25.8509 5.75809 26.7863L14.9959 32.5659V34.5696Z" fill="#F0F0F0"/>
    <path fill-rule="evenodd" clip-rule="evenodd" d="M31.451 3.77578V21.1702C31.451 23.7403 31.0262 25.4523 26.8814 28.0439L16.4551 34.57V32.5662L25.6929 26.7867C27.1861 25.8513 28.8466 24.6843 29.2971 23.1225C29.4773 22.4917 29.4988 21.8138 29.4988 21.1702V4.68969L31.451 3.77148V3.77578Z" fill="#F0F0F0"/>
    <path fill-rule="evenodd" clip-rule="evenodd" d="M27.8422 12.0099L21.5434 16.5666L18.9304 13.1341C19.9173 16.1805 20.3463 17.4849 23.2125 26.2507L15.7253 20.7887L8.23804 26.2507C11.1042 17.4849 11.5376 16.1805 12.5201 13.1298L9.90712 16.5624L3.6084 12.0057L12.8806 12.0185C13.4641 10.2079 14.2836 7.67206 15.7253 3.20117C17.167 7.67206 17.9865 10.2079 18.57 12.0185L27.8422 12.0057V12.0099Z" fill="#F0F0F0"/>
</svg>
