<svg width="36" height="37" viewBox="0 0 36 37" fill="none" xmlns="http://www.w3.org/2000/svg">
    <path d="M24.9243 0.978516H10.5756C4.7442 0.978516 0 5.72271 0 11.5541V25.9028C0 31.7342 4.7442 36.4784 10.5756 36.4784H24.9243C30.7557 36.4784 35.4999 31.7342 35.4999 25.9028V11.5541C35.4998 5.72271 30.7556 0.978516 24.9243 0.978516ZM31.9286 25.9028C31.9286 29.7712 28.7926 32.9071 24.9243 32.9071H10.5756C6.70726 32.9071 3.57129 29.7712 3.57129 25.9028V11.5541C3.57129 7.68571 6.70726 4.5498 10.5756 4.5498H24.9243C28.7926 4.5498 31.9286 7.68571 31.9286 11.5541V25.9028Z" fill="white"/>
    <path d="M17.7509 9.54688C12.6882 9.54688 8.56934 13.6657 8.56934 18.7283C8.56934 23.791 12.6882 27.9099 17.7509 27.9099C22.8136 27.9099 26.9324 23.7911 26.9324 18.7283C26.9324 13.6656 22.8136 9.54688 17.7509 9.54688ZM17.7509 24.3387C14.6524 24.3387 12.1406 21.8269 12.1406 18.7284C12.1406 15.6299 14.6525 13.1182 17.7509 13.1182C20.8494 13.1182 23.3611 15.6299 23.3611 18.7284C23.3611 21.8268 20.8493 24.3387 17.7509 24.3387Z" fill="white"/>
    <path d="M26.9501 11.8142C28.1652 11.8142 29.1502 10.8292 29.1502 9.61415C29.1502 8.39908 28.1652 7.41406 26.9501 7.41406C25.735 7.41406 24.75 8.39908 24.75 9.61415C24.75 10.8292 25.735 11.8142 26.9501 11.8142Z" fill="white"/>
</svg>
