<svg width="36" height="35" viewBox="0 0 36 35" fill="none" xmlns="http://www.w3.org/2000/svg">
    <path d="M31.1488 0H4.85111C2.17197 0 0 2.11153 0 4.71632V30.2835C0 32.8883 2.17188 34.9998 4.85111 34.9998H17.821L17.8431 22.4928H14.5009C14.0666 22.4928 13.7141 22.1513 13.7124 21.7291L13.6964 17.6975C13.6947 17.2729 14.0483 16.9279 14.485 16.9279H17.8211V13.0324C17.8211 8.51172 20.661 6.05018 24.8089 6.05018H28.2127C28.6482 6.05018 29.0013 6.39342 29.0013 6.8169V10.2163C29.0013 10.6396 28.6484 10.9828 28.2131 10.983L26.1243 10.984C23.8685 10.984 23.4317 12.0261 23.4317 13.5555V16.928H28.3885C28.8608 16.928 29.2272 17.3289 29.1716 17.7849L28.6801 21.8165C28.633 22.2023 28.2965 22.493 27.897 22.493H23.4538L23.4317 35H31.149C33.8281 35 36 32.8885 36 30.2838V4.71632C35.9999 2.11153 33.828 0 31.1488 0Z" fill="white"/>
</svg>
