<svg width="205" height="85" viewBox="0 0 205 85" fill="none" xmlns="http://www.w3.org/2000/svg">
<path fill-rule="evenodd" clip-rule="evenodd" d="M8.14495 13.8529C9.88679 16.1046 11.8238 18.5501 14.9396 19.1913C16.7565 21.4355 18.4233 24.0152 21.7794 24.7683C23.6188 27.0423 25.3381 29.7637 28.6942 30.5838C31.0517 33.499 32.6584 36.3248 37.2908 36.8393C50.9777 38.3602 64.1316 39.747 77.5708 41.1189C79.0499 43.1394 81.2422 44.7573 83.6222 46.2411L100.44 56.6941C101.506 57.3577 102.948 57.3577 104.021 56.6941L120.839 46.2411C123.212 44.7648 125.411 43.1394 126.883 41.1189C140.33 39.7545 153.484 38.3677 167.171 36.8393C171.81 36.3248 173.41 33.499 175.767 30.5838C179.123 29.7637 180.843 27.0423 182.682 24.7683C186.031 24.0152 187.697 21.443 189.522 19.1913C192.637 18.5426 194.575 16.1046 196.316 13.8529C199.147 13.3385 200.588 11.7578 202.338 9.62548L204.147 7.41855C204.515 6.97866 204.553 6.44184 204.252 5.96466C203.952 5.48749 203.404 5.21162 202.766 5.21162H128.85C120.051 1.80431 112.085 0 102.227 0C92.369 0 84.4031 1.80431 75.6038 5.21162H1.68812C1.04995 5.21162 0.501867 5.48749 0.20155 5.96466C-0.0987676 6.44184 -0.0612279 6.9712 0.299153 7.41855L2.10857 9.62548C3.87293 11.7578 5.31445 13.3385 8.14495 13.8529ZM63.8238 26.7739L63.8839 26.9006L64.965 30.6733C65.7984 33.5587 67.4727 35.8327 69.7476 37.5625L66.887 37.2642C62.4423 36.7945 58.7559 34.5354 57.1417 31.0162L54.9644 26.2594L63.8238 26.7739ZM120.486 20.347L110.996 27.169L107.055 22.032C108.541 26.5875 109.194 28.5409 113.511 41.6632L102.227 33.4841L90.9425 41.6632C95.2595 28.5409 95.9127 26.5875 97.3993 22.032L93.4576 27.169L83.9676 20.347L97.9399 20.3693C98.8258 17.6554 100.05 13.8678 102.227 7.17251C104.404 13.8678 105.636 17.6554 106.514 20.3693L120.486 20.347ZM125.929 8.02993V34.0657C125.929 37.9129 125.291 40.4702 119.045 44.3547L103.331 54.1219V51.1246L117.25 42.4684C119.503 41.0742 122.003 39.322 122.686 36.9884C122.964 36.0489 122.994 35.0275 122.994 34.0657V9.4018L125.929 8.02993ZM101.123 54.1219L85.4166 44.3547C79.17 40.4702 78.5318 37.9129 78.5318 34.0657V8.02993L81.4675 9.4018V34.0657C81.4675 35.0275 81.4975 36.0489 81.7753 36.9884C82.451 39.322 84.9586 41.0742 87.211 42.4684L101.131 51.1246V54.1219H101.123ZM79.4178 6.38219C86.3701 3.80993 94.0883 2.37841 102.227 2.37841C110.366 2.37841 118.091 3.80993 125.036 6.38219L121.868 7.8659C115.636 5.80809 108.984 4.75682 102.227 4.75682C95.4698 4.75682 88.8177 5.80064 82.5861 7.8659L79.4178 6.38219ZM140.63 26.7739L149.489 26.2445L147.312 31.0013C145.698 34.5205 142.011 36.7796 137.567 37.2493L134.699 37.5476C136.974 35.8253 138.648 33.5438 139.481 30.6584L140.562 26.8857L140.63 26.7739ZM199.575 8.02993C198.186 9.71495 197.247 11.1465 194.432 11.2136L141.493 12.5556L136.471 30.0619C135.382 33.8644 132.491 36.3844 128.497 37.7787C128.805 36.5559 128.873 35.3183 128.873 34.0731V8.02993H199.575ZM144.279 14.2705L158.837 13.9797L156.855 18.0431C155.075 21.6965 151.209 24.06 146.554 24.3358L141.246 24.649L144.279 14.2705ZM187.562 16.6041L160.639 17.6703L162.463 13.9051L192.705 13.3087C191.324 15.031 190.385 16.4923 187.562 16.6041ZM180.692 22.2109L156.156 23.7244C157.538 22.6359 158.694 21.3237 159.557 19.8251L185.843 18.7812C184.439 20.511 183.53 22.0394 180.692 22.2109ZM173.748 28.0637L151.366 29.9426L153.161 26.0208L178.905 24.4775C177.486 26.2296 176.586 27.8252 173.748 28.0637ZM166.803 34.0508L147.207 36.2279C148.536 35.0797 149.609 33.7003 150.36 32.1272L171.968 30.3154C170.534 32.0899 169.633 33.7376 166.803 34.0508ZM4.8865 8.02993H75.5887V34.0657C75.5887 35.3108 75.6563 36.5559 75.9716 37.7712C71.9699 36.3844 69.0794 33.8569 67.9907 30.0544L62.9604 12.5482L10.0294 11.2061C7.21396 11.1465 6.27547 9.71495 4.8865 8.02993ZM60.1825 14.2705L63.2082 24.6564L57.9 24.3433C53.2376 24.0674 49.371 21.7039 47.5992 18.0506L45.6246 13.9871L60.1825 14.2705ZM16.8917 16.6041C14.0687 16.4923 13.1302 15.031 11.7488 13.3161L41.9907 13.9126L43.8152 17.6778L16.8917 16.6041ZM23.7615 22.2109C20.931 22.0394 20.015 20.511 18.611 18.7738L44.8963 19.8176C45.7597 21.3162 46.9084 22.6284 48.2899 23.717L23.7615 22.2109ZM30.7063 28.0637C27.8683 27.8252 26.9749 26.2371 25.5483 24.4775L51.2931 26.0208L53.0874 29.9426L30.7063 28.0637ZM37.6511 34.0508C34.8206 33.7376 33.9197 32.0899 32.4857 30.3154L54.0935 32.1272C54.8443 33.7003 55.9179 35.0797 57.2468 36.2279L37.6511 34.0508ZM65.2128 81.6488C62.7802 81.6488 62.3147 80.6348 62.3147 78.8678V71.315C62.3147 69.6225 62.7802 68.534 65.2128 68.534C67.818 68.534 68.261 69.6225 68.261 71.315V78.8603C68.261 80.6348 67.6528 81.6488 65.2128 81.6488ZM65.2128 84.6013C69.6725 84.6013 71.6245 82.879 71.6245 79.0392V71.1435C71.6245 67.1994 69.7476 65.5815 65.2128 65.5815C60.6855 65.5815 58.9512 67.1994 58.9512 71.1435V79.0318C58.9512 82.879 60.7531 84.6013 65.2128 84.6013ZM101.311 65.7977V84.4522H112.445V81.4027H104.667V76.4893H111.004V73.4921H104.667V68.698H112.092V65.7977H101.311ZM39.926 84.4298H50.805V81.276H44.3032V81.194L50.8276 68.4296V65.7679H40.4816V68.9217H46.6982V69.0037L39.9185 82.3198V84.4298H39.926ZM164.535 65.8722H153.506V68.8248H157.373V84.2882H160.684V68.8248H164.528V65.8722H164.535ZM144.729 71.9338H141.373V84.3105H144.729V71.9338ZM132.131 81.2611H124.953V65.7977H121.597V84.2882H132.139V81.2611H132.131ZM93.1123 84.2882L89.0279 77.2498C91.2728 76.5266 92.2413 75.0429 92.2413 72.3066V71.3448C92.2413 67.4305 90.1391 65.7977 85.6419 65.7977H80.9494V84.2882H84.2829V77.7792H85.5142L89.2156 84.2882H93.1123ZM84.2604 74.7298V68.8471H85.6869C88.2772 68.8471 88.7351 69.7567 88.7351 71.5089V72.1351C88.7351 73.8873 88.0594 74.7298 85.6419 74.7298H84.2604ZM146.351 65.8722L144.339 67.3336L145.112 69.6747L143.1 68.2134L141.088 69.6747L141.861 67.3336L139.842 65.8722H142.334C142.492 65.3876 142.71 64.7091 143.1 63.5162L143.866 65.8722H146.351Z" fill="black"/>
</svg>
